<?xml version="1.0" encoding="utf-8"?>
<!-- Generator: Adobe Illustrator 21.1.0, SVG Export Plug-In . SVG Version: 6.00 Build 0)  -->
<svg version="1.1" id="Слой_1" xmlns="http://www.w3.org/2000/svg" xmlns:xlink="http://www.w3.org/1999/xlink" x="0px" y="0px"
	 viewBox="0 0 769.5 296.7" style="enable-background:new 0 0 769.5 296.7;" xml:space="preserve">
<style type="text/css">
	.st0{fill:#C2C2C2;}
</style>
<title>Безымянный-654_2</title>
<path class="st0" d="M18.7,144.5c0.4-1.1,0.7-2.3,1.1-3.4c1.2-3.2,2.1-6.5,3.5-9.7c1.9-4.4,4.3-8.6,7.1-12.5
	c3.1-4.4,6.6-8.6,10.6-12.3c5.1-4.9,10.6-9.1,16.7-12.6c6.8-3.9,14-6.8,21.4-8.4c3.4-0.7,6.8-1.2,10.2-1.5c3-0.3,5.8-0.4,8.6-0.2
	c4.7,0.2,9.2,1,13.5,2.2c4.1,1.2,8,2.8,11.5,4.9c4.1,2.3,7.8,5.2,11,8.5c0.1,0.1,0.2,0.3,0.4,0.4c0.2,0.1,0.3,0.1,0.5,0.1l2.9-16.2
	c0.3-1.9,1-2.5,2.8-2.5H170c1.5,0,2,0.6,1.7,2.2l-22.9,130.1c-0.3,1.8-1,2.4-2.8,2.4h-29.2c-2,0-2.5-0.6-2.2-2.5l2.9-16.2
	c-3.2,2.1-6.3,4.2-9.6,6.1c-7.3,4.3-15.1,7.2-22.9,8.7c-3.1,0.6-6.3,0.8-9.4,1.2c-4.6,0.4-9,0.3-13.3-0.4c-7-1-13.6-3.2-19.6-6.5
	c-3.6-2-7-4.4-9.9-7.4c-2.1-2.2-4.1-4.4-6.1-6.8c-2.8-3.6-4.9-7.6-6.4-12c-1.2-3.4-2.1-6.8-2.9-10.4c-0.5-3.2-0.7-6.6-0.8-9.9
	c0-2.1,0.3-4.4,0.4-6.6c-0.1-0.2,0-0.3-0.1-0.5L18.7,144.5z M90.3,106.4c-22.4,0-44,17.4-49.3,39.8c-2.8,11.6-0.8,23.1,5.8,31.5
	c6,8.2,15.5,13,26.4,13.4c23.2,1.1,46.2-17,51.4-40.3c5.2-23.2-9.1-42.9-32-44.3C91.9,106.4,91.1,106.4,90.3,106.4L90.3,106.4z"/>
<path class="st0" d="M639.9,0c0.9,0.6,1.3,1.8,1,3c-6.6,37.6-13.3,75.2-19.9,112.8l-0.3,1.6c0.6-0.4,0.9-0.8,1.3-1.1
	c17.9-15.2,35.8-30.4,53.7-45.7c1.3-1.2,3.2-1.3,4.2-0.2l0,0l0.2,0.2c4.2,5.3,8.5,10.4,12.7,15.6c1.2,1.4,1,2.3-0.7,3.7l-61.8,52.5
	c-0.5,0.3-0.9,0.6-1.4,0.9c0.5,0.6,0.6,0.9,1,1.2l42.4,51.5c1.3,1.6,1.1,2.6-0.7,4.2l-18.1,15.4c-1.8,1.5-2.8,1.5-4,0l-37.1-45
	c-0.2-0.3-0.5-0.7-0.6-1l-0.3,0.1l-7.8,44.3c-0.3,1.9-1.3,2.8-3.3,2.8c-7.7-0.1-15.4,0-23.2,0c-1.8,0-2.3-0.6-2-2.4L612.6,2.7
	c0.1-1.1,0.9-2.2,2-2.7H639.9z"/>
<path class="st0" d="M306,197.8l-16.9,96c-0.4,2.2-1.3,2.9-3.3,2.9c-7.8-0.1-15.6,0-23.4,0c-1,0.1-1.8-0.6-1.8-1.6
	c0-0.2,0.1-0.4,0.1-0.5L298,82.7c0.4-2,1.6-2.7,3.2-2.7c7.6,0,15.3,0,22.9,0c1.9,0,2.6,0.6,2.2,2.7l-2.9,16.7
	c19.3-13.6,39.2-18.7,59.5-13.9c20.3,4.8,33.3,17.5,38.4,37.3c6.7,25.5-5,55.4-28.9,74c-13.6,10.7-29.9,16.7-45.8,16.8
	C330.2,213.8,316.7,208.5,306,197.8z M364.7,106.3c-12.2-0.1-24.8,5.2-34.5,14.5c-8.3,7.6-13.9,17.7-15.5,28
	c-4.1,23.5,11.5,42.5,35,42.5s45.9-19,50-42.5c4-22.6-10.4-41.3-32.8-42.4C366.1,106.3,365.3,106.3,364.7,106.3L364.7,106.3z"/>
<path class="st0" d="M530.9,197.1c-28,21.5-64.4,22-85.5,1.2c-22.6-22.9-17.9-58.1-0.5-81.3c13.4-17.8,30.6-28.8,51.5-32.3
	c20.9-3.5,37.9,2,51.5,15.4l2.9-16.4c0.3-1.7,1-2.3,2.7-2.3h29.4c1.7,0,2.2,0.6,1.9,2.3l-22.9,129.7c-0.4,2.1-1,2.6-3.2,2.6h-29
	c-1.8,0-2.3-0.6-2-2.4C528.9,208.2,529.9,202.7,530.9,197.1z M454.6,143.8c-5,28.6,10.8,46.4,32,47.2c23.3,0.8,46.1-17.5,51-40.9
	c4.8-22.7-9.1-42-31.5-43.7c-11.4-0.8-23.4,3.3-33.2,11.3C462.5,125.9,456,136.4,454.6,143.8z"/>
<path class="st0" d="M215.9,110.7l-0.3,1.7c-5.9,33.7-11.9,67.3-17.8,101c-0.3,1.8-1.1,2.8-3.4,2.8H166c-1.7,0-2.7-0.6-2.3-2.8
	c7.7-43.2,15.3-86.4,22.9-129.6c0.1-1.2,1.1-2.3,2.3-2.4c0.2,0,0.4,0,0.6,0c10.7,0.1,21.4,0,32,0c5.4,0,10.5,0.9,15.4,2.5
	c3.6,1.2,6.9,2.6,10.2,4.3c4.1,2.2,7.8,5,11,8.3c6.7,6.6,11.6,14.9,14.1,24.3c1.5,5.3,2.2,10.9,2.1,16.7c0,3-0.4,6.1-0.9,9.2
	c-3.8,22.2-7.6,44.4-11.5,66.7c-0.4,2.1-1.1,2.7-3.1,2.7h-29.3c-1.7,0-2-0.4-1.7-2.2l10.7-60.9c1.6-8.8,1.4-17.4-1.6-25.2
	c-2.4-6.3-6.1-11.4-12-14.6c-2.3-1-4.8-1.9-7.4-2.5C217,110.6,216.5,110.6,215.9,110.7z"/>
</svg>
